<svg width="61" height="62" viewBox="0 0 61 62" fill="none" xmlns="http://www.w3.org/2000/svg">
<path d="M46.328 50.5C48.0122 50.349 49.349 49.0122 49.5 47.328C49.651 49.0122 50.9878 50.349 52.672 50.5C50.9878 50.651 49.651 51.9878 49.5 53.672C49.349 51.9878 48.0122 50.651 46.328 50.5Z" stroke="#5E5E5E"/>
<path d="M29.4854 4.05254L34.1115 22.7917C34.245 23.3326 34.6674 23.755 35.2083 23.8885L53.9475 28.5146C54.4543 28.6397 54.4544 29.3603 53.9475 29.4854L35.2083 34.1115C34.6674 34.245 34.245 34.6674 34.1115 35.2083L29.4854 53.9475C29.3603 54.4543 28.6397 54.4544 28.5146 53.9475L23.8885 35.2083C23.755 34.6674 23.3326 34.245 22.7917 34.1115L4.05253 29.4854C3.54565 29.3603 3.54565 28.6397 4.05254 28.5146L22.7917 23.8885C23.3326 23.755 23.755 23.3326 23.8885 22.7917L28.5146 4.05253C28.6397 3.54565 29.3603 3.54565 29.4854 4.05254Z" stroke="#5E5E5E"/>
</svg>
